<?xml version="1.0" encoding="utf-8"?>
<!-- Generator: Adobe Illustrator 21.1.0, SVG Export Plug-In . SVG Version: 6.00 Build 0)  -->
<svg version="1.1" id="Layer_1" xmlns="http://www.w3.org/2000/svg" xmlns:xlink="http://www.w3.org/1999/xlink" x="0px" y="0px"
	 viewBox="0 0 265.5 265.5" style="enable-background:new 0 0 265.5 265.5;" xml:space="preserve">
<style type="text/css">
	.st0{fill:#39455E;}
</style>
<g>
	<path class="st0" d="M132.8,0C59.6,0,0,59.6,0,132.8s59.6,132.8,132.8,132.8S265.5,206,265.5,132.8S206,0,132.8,0z M132.8,254.7
		c-67.2,0-122-54.7-122-122c0-67.2,54.7-122,122-122s122,54.7,122,122C254.7,200,200,254.7,132.8,254.7z"/>
	<path class="st0" d="M198.2,81V51.8c0-3.7-3.1-6.8-6.8-6.8h-57.5c-3.7,0-6.8,3.1-6.8,6.8v5.6v26V97v71.6v13.6v20.3
		c0,3.7-3.1,6.8-6.8,6.8H85.4c-3.7,0-6.8-3.1-6.8-6.8V81.4c0-0.1,0-0.1,0-0.2H67.4c0,0.1,0,0.1,0,0.2v132.4c0,3.7,3.1,6.8,6.8,6.8
		h55.6c3,0,3-3.9,3-3.9s0,3.9,3,3.9h55.6c3.7,0,6.8-3.1,6.8-6.8v-29.2h-11.3v17.9c0,3.7-3.1,6.8-6.8,6.8h-34.9
		c-3.7,0-6.8-3.1-6.8-6.8v-20.3v-13.6V97V83.4V63.1c0-3.7,3.1-6.8,6.8-6.8h34.9c3.7,0,6.8,3.1,6.8,6.8V81H198.2z"/>
</g>
</svg>
